<?xml version="1.0" encoding="UTF-8"?>
<svg id="Capa_2" data-name="Capa 2" xmlns="http://www.w3.org/2000/svg" xmlns:xlink="http://www.w3.org/1999/xlink" viewBox="0 0 792.68 855.99">
  <defs>
    <style>
      .cls-1 {
        fill: url(#Degradado_sin_nombre_4-3);
      }

      .cls-2 {
        fill: url(#Degradado_sin_nombre_4-2);
      }

      .cls-3 {
        fill: url(#Degradado_sin_nombre_4);
      }

      .cls-4 {
        fill: url(#Degradado_sin_nombre_9);
      }
    </style>
    <linearGradient id="Degradado_sin_nombre_9" data-name="Degradado sin nombre 9" x1="437.15" y1="179.03" x2="437.15" y2="844.4" gradientUnits="userSpaceOnUse">
      <stop offset="0" stop-color="#64a8dd"/>
      <stop offset=".71" stop-color="#334a9a"/>
    </linearGradient>
    <linearGradient id="Degradado_sin_nombre_4" data-name="Degradado sin nombre 4" x1="0" y1="428.33" x2="285.53" y2="428.33" gradientUnits="userSpaceOnUse">
      <stop offset="0" stop-color="#64a8dd"/>
      <stop offset="1" stop-color="#334a9a"/>
    </linearGradient>
    <linearGradient id="Degradado_sin_nombre_4-2" data-name="Degradado sin nombre 4" x1="363.92" y1="754.55" x2="765.38" y2="584.14" xlink:href="#Degradado_sin_nombre_4"/>
    <linearGradient id="Degradado_sin_nombre_4-3" data-name="Degradado sin nombre 4" x1="353.26" y1="185.97" x2="781.28" y2="185.97" xlink:href="#Degradado_sin_nombre_4"/>
  </defs>
  <g id="Capa_1-2" data-name="Capa 1">
    <g>
      <path class="cls-4" d="M81.62,210.59s93.45-71.02,208.09,0c70.13,43.44,140.26,86.87,210.4,130.3,25.83,15.99,48.35,25.06,78.77,26.96,19.84,1.25,39.83,1.09,59.61-1.06,43.64-4.73,89.7-20.06,115.79-57.64,21.24-30.58,24.67-69.34,20.76-105.42,0,0,74.15,140.8-81.61,224.6-155.76,83.8-266.27,146.67-266.27,146.67,0,0-158.2,118.19-13.87,269.39,0,0-130.42-28.23-128.25-205.17,2.18-176.94,.49-289.09,.49-289.09,0,0-23.23-201.85-203.91-139.55Z"/>
      <path class="cls-3" d="M102.57,554.38v-125.55c0-30.75-2.91-61.88,12.36-89.82,12.35-22.6,33.58-40.02,58.62-46.56,7.4-1.93,15.03-2.9,22.68-2.9,41.58,0,76.84,28.45,89.06,67.81,2.82-53.7-19.12-106.38-64.28-137.29-22.91-15.68-50.25-24.27-78.02-24.27-52.19,0-99.97,30.64-124.49,76.25C-3.5,312.98,.24,359.64,.24,404.49v113.08c0,29.27,.98,56.48,15.49,82.73,12.39,22.42,31.9,40.79,55.39,51.14,14.09,6.2,29.41,9.42,44.8,9.42,63.89,0,113.63-53.85,115.11-120.76,.1-4.61-.05-8.92,0-14.89v-140.35c0-20.64-16.1-37.38-35.96-37.38s-35.96,16.74-35.96,37.38v169.51c0,35.38-56.54,36.41-56.54,0v-3.98"/>
      <path class="cls-2" d="M681.76,645.92l-98.77,53.95-17.13,9.36-48.11,26.28s-63.56,26.14-106.55-24.32c-68.22-107.47,50.75-156.07,50.75-156.07,0,0-139.53,59.81-113.37,185.04,36.45,181.3,194.74,95.59,194.74,95.59l22.53-12.31,160.07-87.43,10.88-7.06c29.04-20.8,47.98-54.98,47.98-93.62,0-63.39-51-114.79-113.91-114.79-13.6,0-26.64,2.4-38.73,6.8l-43.89,23.88-124.76,68.15c-18,9.83-24.62,32.4-14.79,50.4h0c9.83,18,32.4,24.62,50.4,14.79l149.33-81.57,5.09-2.57c5.12-3.08,9.94-5.43,15.91-5.43,14.61,0,26.46,12.11,26.46,27.04,0,10.83-6.23,20.17-15.22,24.49"/>
      <path class="cls-1" d="M512.94,193.59s-50.94-31.9-50.99-31.94c-13.22-8.28-28.8-15.54-28.8-33.85,0-16.05,12.8-29.06,28.58-29.06,13.84,0,26.61,12.09,37.98,19.21,11.09,6.94,22.18,13.89,33.26,20.83,29.57,18.52,62.2,35.19,89.97,56.24,23.01,17.45,36.22,46.45,36.22,75.06,0,57.02-41.74,97.19-92.52,97.19l-5.86-.97,5.86,.97c15.98,4.22,33.09,4.67,50.81,4.67,90.48,0,163.83-59.55,163.83-133.02,0-39.49-22.7-73.79-56.36-98.16l-12.07-8.61L536.55,21.74l-13.41-8.85c-15.92-8.24-33.95-12.89-53.06-12.89-64.52,0-116.82,53-116.82,118.37,0,36.58,17.29,69.29,45.52,92.08,16.44,13.27,36.2,22.92,54.15,34.16,31.21,19.55,62.43,39.1,93.65,58.65,17.58,11.01,40.75,5.68,51.76-11.89,11.01-17.58,5.68-40.75-11.89-51.76l-73.5-46.03"/>
    </g>
  </g>
</svg>