<?xml version="1.0" encoding="UTF-8"?>
<svg id="Capa_2" data-name="Capa 2" xmlns="http://www.w3.org/2000/svg" viewBox="0 0 174.32 223.54">
  <g id="Capa_1-2" data-name="Capa 1">
    <path d="m174.32,173.71v7.48c-.07.59-.14,1.19-.22,1.78-.78,5.81-2.7,11.19-6.01,16.06-3.52,5.18-8.14,9.18-13.47,12.39-5.18,3.12-10.74,5.33-16.52,7.02-9.34,2.73-18.92,4.03-28.61,4.67-5.12.34-10.26.43-15.39.41-7.61-.03-15.19-.42-22.73-1.42-5.24-.7-10.41-1.69-15.48-3.19-5.62-1.65-10.99-3.87-15.91-7.08-5.83-3.8-10.46-8.69-13.68-14.88-3.91-7.52-5.32-15.65-5.62-24.01-.07-2,1.6-3.59,3.65-3.71.17-.01.35,0,.52,0,8.59,0,17.17,0,25.76,0,2.4,0,3.82,1.32,4.17,3.67.28,1.89.61,3.78,1.06,5.63,1.79,7.31,6.22,12.36,13.17,15.23,3.89,1.6,7.95,2.52,12.09,3.11,3.62.52,7.26.8,10.92.92,8.65.31,17.28.1,25.85-1.28,3.64-.58,7.22-1.44,10.67-2.77,2.58-1,5.03-2.25,7.18-4.02,2.29-1.89,3.98-4.2,4.79-7.1.46-1.64.53-3.32.44-5-.23-4.44-2.1-7.95-5.84-10.43-1.6-1.06-3.33-1.89-5.13-2.56-4.56-1.7-9.3-2.71-14.08-3.44-6.56-1.01-13.14-1.88-19.72-2.78-5.74-.78-11.5-1.49-17.24-2.27-7.18-.96-14.34-2.08-21.45-3.52-4.92-1-9.79-2.16-14.54-3.82-3.71-1.29-7.28-2.86-10.53-5.12-4.36-3.04-7.33-7.05-8.59-12.25-.94-3.88-1.09-7.81-.53-11.75.81-5.67,3.6-10.16,8.28-13.45,1.14-.8,2.37-1.46,3.56-2.18.24-.15.5-.27.83-.46-.29-.21-.51-.38-.74-.54-.78-.55-1.59-1.07-2.35-1.66-5.86-4.48-11.15-9.55-15.58-15.46C5.12,69.69-.69,51.41.07,31.07c.18-4.77.86-9.46,1.87-14.12C3.14,11.37,5.08,6.04,7.31.81,7.42.55,7.49.27,7.57,0c.06,0,.12,0,.17,0,0,.29,0,.58,0,.87-.25,6.52.16,12.98,1.38,19.39,1.61,8.49,4.35,16.58,8.53,24.17,4.98,9.03,11.7,16.46,20.36,22.11,11.24,7.33,23.62,11.46,36.85,13.18,3.07.4,6.17.61,9.26.92.39.04.78.12,1.21.18,0,.37,0,.66,0,.95,0,4.18,0,8.35.01,12.53,0,1.1-.03,2.21.03,3.31.07,1.49.81,2.59,2.15,3.23,1.31.62,2.59.51,3.79-.32.33-.23.64-.51.95-.76,7.05-5.86,14.1-11.71,21.16-17.57,6-4.99,12-9.97,18.01-14.95.87-.72,1.55-1.56,1.96-2.61.98-2.49.26-5.17-1.9-6.97-13.24-11.02-26.49-22.04-39.74-33.06-.2-.17-.4-.33-.62-.47-2.07-1.32-4.86-.32-5.59,2.02-.15.49-.19,1.03-.19,1.54-.01,5.71,0,11.43,0,17.14,0,.34,0,.68,0,1.11-.51.06-.94.16-1.36.14-1.74-.1-3.48-.17-5.2-.37-5.44-.62-10.87-1.38-16.26-2.37-5.94-1.1-11.78-2.55-17.43-4.73-1.43-.55-2.83-1.2-4.19-1.91-1.56-.82-2.86-1.98-3.83-3.47-1.3-1.97-1.58-4.07-.83-6.31.54-1.63,1.48-3.01,2.58-4.3,1.4-1.64,3.02-3.05,4.74-4.34,5.66-4.22,11.93-7.24,18.64-9.38,8.26-2.64,16.77-3.85,25.39-4.33,4.08-.22,8.17-.36,12.26-.36,22.51-.03,45.02,0,67.53-.03,1.36,0,2.28.81,2.25,2.23-.06,3.33-.02,6.67-.02,10.01,0,2.19-.95,3.46-3.06,4.07-1.67.49-3.34.97-5.01,1.45-2,.58-4.01,1.17-6.01,1.75-.8.23-1.49.62-2.03,1.28-1.24,1.52-1.13,3.71.34,5.12,1.47,1.41,2.86,2.88,4.05,4.53,2.8,3.9,4.53,8.27,5.62,12.91,1.08,4.6,1.5,9.27,1.56,13.98.07,5.53-.31,11.01-1.56,16.41-2.56,11.04-8.66,19.47-18.42,25.25-4.6,2.72-9.52,4.67-14.64,6.13-8.72,2.5-17.65,3.65-26.67,4.15-4.95.27-9.91.38-14.87.53-6.87.21-13.74.4-20.59,1.08-2.37.24-4.72.57-7.02,1.21-1.32.37-2.58.86-3.71,1.66-2.45,1.71-2.78,5.62-.59,7.63.76.7,1.62,1.35,2.55,1.78,1.55.71,3.16,1.33,4.79,1.8,4.97,1.44,10.07,2.22,15.18,2.96,5.68.82,11.37,1.55,17.06,2.32,6.69.91,13.39,1.81,20.08,2.73,5.83.8,11.64,1.75,17.39,2.99,5.45,1.18,10.81,2.62,16,4.68,4.61,1.83,8.97,4.08,12.84,7.22,6.71,5.45,10.53,12.45,11.26,21.1.02.19.1.38.16.57Z"/>
  </g>
</svg>