<?xml version="1.0" encoding="UTF-8"?>
<svg id="Capa_2" data-name="Capa 2" xmlns="http://www.w3.org/2000/svg" viewBox="0 0 174.56 223.66">
  <g id="Capa_1-2" data-name="Capa 1">
    <path d="m100.94,223.66h-10.44c-.31-.11-.62-.12-.94-.12-4.06-.04-8.11-.32-12.15-.69-5.44-.49-10.83-1.28-16.15-2.5-5.81-1.34-11.45-3.18-16.77-5.93-4.31-2.22-8.24-4.99-11.61-8.49-4.17-4.33-7.13-9.41-9.05-15.1-1.33-3.95-2.15-8.01-2.6-12.14-.21-1.9-.42-3.81-.38-5.73.04-2.05,1.54-3.63,3.58-3.79.35-.03.7-.02,1.04-.02,5.74,0,11.48,0,17.23,0,2.81,0,5.63-.01,8.44,0,2.03.02,3.52,1.3,3.89,3.3.06.34.11.69.16,1.03.29,2.22.74,4.41,1.41,6.54,1.11,3.52,2.87,6.64,5.6,9.18,2.36,2.19,5.1,3.71,8.07,4.86,3.29,1.27,6.71,2.03,10.18,2.58,5.71.92,11.48,1.12,17.25,1.18,3.27.04,6.55-.08,9.82-.28,4.46-.26,8.9-.74,13.28-1.64,3.96-.82,7.83-1.94,11.42-3.85,2.09-1.11,3.99-2.48,5.56-4.27,2.72-3.09,3.64-6.73,3.25-10.75-.18-1.86-.62-3.66-1.54-5.31-1.22-2.19-3.02-3.79-5.15-5.06-2.31-1.37-4.82-2.28-7.39-3.02-5.47-1.59-11.09-2.48-16.71-3.31-7.46-1.1-14.95-1.95-22.43-2.93-8.97-1.18-17.94-2.39-26.83-4.05-5.91-1.1-11.77-2.39-17.46-4.34-3.83-1.31-7.52-2.9-10.86-5.22-4.78-3.31-7.82-7.76-8.93-13.49-.63-3.24-.78-6.5-.39-9.78.26-2.23.81-4.39,1.74-6.44,1.85-4.06,4.92-6.98,8.69-9.23.55-.33,1.12-.62,1.67-.94.48-.28.5-.42.06-.74-.49-.36-1.01-.68-1.5-1.04-5.88-4.31-11.14-9.28-15.64-15.02C7.46,73.21,1.46,57.39.29,39.74.24,39.02.22,38.3,0,37.6,0,35.8,0,34,0,32.2c.06-.31.14-.62.17-.93.11-1.3.2-2.6.31-3.89.39-4.48,1.19-8.89,2.3-13.24C4.03,9.26,5.84,4.6,7.83,0h.35c-.04.43-.11.86-.12,1.3-.1,4.24-.01,8.47.47,12.68.87,7.56,2.64,14.9,5.47,21.97,3.48,8.69,8.31,16.51,15.03,23.09,5.21,5.11,11.25,9.03,17.76,12.25,6.8,3.36,13.96,5.67,21.38,7.19,5.3,1.09,10.67,1.57,16.04,2.05,1.44.13,1.44.12,1.44,1.53,0,4.84.01,9.69.02,14.53,0,.55,0,1.1.13,1.64.57,2.47,3.44,3.65,5.57,2.27.27-.17.51-.38.76-.58,7.41-6.15,14.82-12.3,22.23-18.45,5.73-4.76,11.47-9.52,17.2-14.28,3.19-2.65,3.21-6.92.05-9.56-3.81-3.18-7.62-6.35-11.44-9.52-6.78-5.64-13.56-11.28-20.34-16.91-2.68-2.22-5.36-4.44-8.04-6.67-1.22-1.01-2.58-1.18-3.99-.55-1.44.64-2.1,1.85-2.14,3.41-.01.35,0,.7,0,1.04,0,5.42,0,10.85,0,16.27,0,1.31-.11,1.4-1.45,1.44-1.37.04-2.73-.1-4.08-.24-4.96-.52-9.9-1.21-14.82-2.04-6.19-1.04-12.29-2.42-18.21-4.53-2.16-.77-4.32-1.53-6.29-2.75-1.63-1.01-3.01-2.27-3.93-3.97-.77-1.42-1.05-2.93-.76-4.54.28-1.55.95-2.91,1.85-4.18,1.59-2.26,3.62-4.07,5.81-5.71,5.92-4.42,12.51-7.52,19.55-9.68,8.63-2.64,17.51-3.71,26.48-4.18,3.68-.19,7.36-.21,11.05-.21,22.01,0,44.03,0,66.04,0,.35,0,.7,0,1.04,0,1.26.05,1.95.7,1.96,1.96.02,3.63.01,7.25,0,10.88,0,1.05-.46,1.9-1.21,2.61-.54.51-1.2.8-1.91,1-2.59.75-5.18,1.5-7.77,2.25-1.2.35-2.41.65-3.58,1.07-2.54.91-3.25,4.02-1.4,5.97.18.19.37.37.56.55,3.28,3.1,5.68,6.79,7.35,10.97,2.22,5.54,3.13,11.34,3.38,17.25.14,3.33.13,6.67-.11,10-.28,3.92-.89,7.78-1.96,11.56-1.87,6.58-5.14,12.35-10.07,17.12-2.98,2.89-6.36,5.22-10.03,7.15-4.75,2.5-9.78,4.26-14.96,5.58-8.7,2.21-17.56,3.18-26.5,3.61-3.13.15-6.26.24-9.39.31-3.57.08-7.13.22-10.69.35-4.67.17-9.33.4-13.97.92-2.08.23-4.14.54-6.16,1.12-1.17.34-2.3.78-3.34,1.46-2.82,1.85-2.92,5.82-.66,7.84,1.01.9,2.15,1.57,3.38,2.09,2.9,1.23,5.95,1.94,9.03,2.56,7.08,1.42,14.25,2.33,21.41,3.29,10.23,1.37,20.48,2.63,30.68,4.19,6.57,1.01,13.1,2.22,19.51,4,5.38,1.49,10.62,3.35,15.53,6.06,3.73,2.06,7.14,4.54,10,7.73,3.49,3.89,5.76,8.39,6.89,13.48.29,1.3.45,2.62.64,3.94v8.88c-.18.5-.12,1.03-.19,1.55-.91,6.26-3.16,11.97-6.96,17.04-3.35,4.47-7.54,8-12.29,10.89-4.48,2.72-9.27,4.77-14.25,6.39-5.72,1.86-11.58,3.12-17.52,4.02-4.07.62-8.16,1.06-12.27,1.34-2.95.21-5.9.42-8.85.41-.43,0-.87-.03-1.29.13Z" fill="#006fdc"/>
  </g>
</svg>