<?xml version="1.0" encoding="UTF-8"?>
<svg id="Capa_2" data-name="Capa 2" xmlns="http://www.w3.org/2000/svg" viewBox="0 0 74.34 71.91">
  <g id="Capa_1-2" data-name="Capa 1">
    <path d="m40.41,48.45c1.21-5.96,2.4-11.75,3.55-17.42,3.64,0,7.14-.01,10.65,0,1.32,0,2.63.06,3.95.13.6.03.94-.15,1.12-.78,1.59-5.63,3.21-11.25,4.81-16.87.03-.11,0-.23,0-.49h-1.55c-16.97,0-33.94-.02-50.92.04-1.32,0-1.96-.39-2.53-1.55C7.68,7.77,5.73,4.08,3.76.22c.5-.03.88-.07,1.25-.07,8.31-.01,16.61-.02,24.92-.03,8.27-.01,16.54-.27,24.79,0,7.89.26,14.35,3.44,17.81,10.99,2.38,5.19,2.18,10.62.73,16.02-3.04,11.3-10.8,17.85-21.67,21.2-.19.06-.39.11-.59.11-3.47,0-6.93,0-10.58,0Z"/>
    <path d="m19.59,67.82c3.2-13.88,6.35-27.55,9.54-41.39-8.26.16-16.37.31-24.67.47.3-.45.45-.71.63-.95,2.09-2.67,4.17-5.34,6.31-7.97.32-.4.95-.78,1.44-.78,15.17-.04,30.35-.03,45.52-.03.19,0,.39.03.73.06-.44,1.55-.86,3.03-1.29,4.51-.39,1.38-.85,2.74-1.17,4.13-.19.81-.54,1.09-1.38,1.07-4.43-.12-8.86-.15-13.29-.3-1.04-.03-1.45.25-1.66,1.28-1.98,9.94-4.02,19.88-6.04,29.81-.63,3.08-1.25,6.16-1.92,9.22-.07.33-.47.83-.72.83-3.94.05-7.89.04-12.05.04Z"/>
    <path d="m0,71.91c.64-2.92,1.22-5.63,1.82-8.34,2.31-10.45,4.62-20.9,6.93-31.35.16-.71.26-1.31,1.28-1.32,4.35-.02,8.7-.14,13.05-.21.19,0,.39.04.7.07-.05.39-.07.73-.14,1.05-2.75,11.94-5.5,23.88-8.25,35.82-.14.59-.21,1.13-.98,1.28-4.72.96-9.44,1.96-14.4,2.99Z"/>
  </g>
</svg>